Coordinates
version=1
nRows=19
nColumns=36
inDegrees=yes

Units are S.I. units (second, meters, Newtons, ...)
If the header above contains a line with 'inDegrees', this indicates whether rotational values are in degrees (yes) or radians (no).

endheader
time	pelvis_tilt	pelvis_list	pelvis_rotation	pelvis_tx	pelvis_ty	pelvis_tz	hip_flexion_r	hip_adduction_r	hip_rotation_r	knee_angle_r	knee_angle_r_beta	ankle_angle_r	subtalar_angle_r	mtp_angle_r	hip_flexion_l	hip_adduction_l	hip_rotation_l	knee_angle_l	knee_angle_l_beta	ankle_angle_l	subtalar_angle_l	mtp_angle_l	lumbar_extension	lumbar_bending	lumbar_rotation	arm_flex_r	arm_add_r	arm_rot_r	elbow_flex_r	pro_sup_r	arm_flex_l	arm_add_l	arm_rot_l	elbow_flex_l	pro_sup_l
      0.00000000	      4.10673564	     -1.84636638	     -0.93338207	      0.40603539	      0.90289577	     -0.09749428	     -5.27914657	     -0.47816827	     -0.33934049	      5.11102583	      0.08920423	      6.48467236	    -15.76120351	     -5.50747641	     -4.19393608	     -4.50749866	      2.57052173	      4.63350341	      0.08086989	      7.57827195	     -9.37250624	     -5.50747641	     -9.66366757	      0.61953833	     -0.93583220	      9.08681448	     -8.00820801	     35.89271470	     23.42785868	     66.21052374	      4.10008974	     -8.96169428	     29.99211114	     25.43886604	     61.55828396
      0.01666670	      4.25195861	     -1.55297439	     -0.92192271	      0.40611415	      0.90182553	     -0.09994975	     -5.93629890	     -0.36884200	      0.73450216	      4.42592329	      0.07724693	      9.50401503	    -13.95054955	     -5.69620420	     -4.53549061	     -3.73676774	      3.68979386	      4.41064720	      0.07698032	      7.38239060	    -10.58597497	     -5.69620420	     -8.84818621	      0.24480353	     -0.91724685	      9.20859894	     -8.54211521	     38.27709769	     23.81037810	     67.55638731	      4.25541219	     -9.30797974	     31.98783104	     25.81941018	     62.36772412
      0.03333330	      3.50027265	     -1.15285339	     -1.20747943	      0.40665043	      0.90030243	     -0.09701538	     -5.24291022	     -0.61970451	      0.57676257	      4.12216877	      0.07194542	      9.82290237	    -14.85770818	     -6.26120723	     -3.71326162	     -3.27287771	      3.72455450	      4.60134264	      0.08030858	      7.58576734	    -10.64154134	     -6.26120723	     -7.97665867	     -0.50032827	     -0.41857717	      9.17544970	     -8.40312891	     39.71155880	     23.84910134	     68.79671652	      4.78941578	     -9.94728912	     34.10223325	     25.77885599	     63.43403605
      0.05000000	      4.22535358	     -0.98039485	     -1.24526129	      0.40603210	      0.90178338	     -0.09818142	     -5.96602783	     -0.91280262	      0.65793065	      4.08445066	      0.07128711	     10.13791264	    -15.01202725	     -6.42152108	     -4.82001679	     -3.04911967	      4.13308122	      4.01976923	      0.07015821	      7.85499293	    -10.78149966	     -6.42152108	     -9.04371031	     -0.86919537	     -0.25301985	      9.28621428	     -8.29587289	     39.30996038	     23.97372596	     68.44696180	      5.24648995	    -10.03756231	     33.95213438	     25.70657603	     63.41903505
      0.06666670	      4.58823038	     -0.90098900	     -1.36048847	      0.40531959	      0.90149426	     -0.09568837	     -6.33137421	     -0.93892025	      0.33607636	      4.09736903	      0.07151258	     10.35731320	    -14.78477449	     -6.58502884	     -5.38196077	     -3.03423782	      4.20806011	      3.70014201	      0.06457966	      8.08160812	    -10.68464857	     -6.58502884	     -9.60375377	     -1.09212030	     -0.02884782	      9.31098648	     -8.22872907	     39.14881804	     24.33463637	     68.36050810	      5.42828299	    -10.12228710	     34.10338342	     25.76031877	     63.56194210
      0.08333330	      4.91288694	     -0.82329037	     -1.47263110	      0.40483857	      0.90453724	     -0.09584490	     -6.61827572	     -1.01479102	      0.35903116	      4.08448801	      0.07128776	     10.42334175	    -14.73652988	     -6.75880148	     -5.78535978	     -2.95883583	      4.63888171	      3.55060051	      0.06196967	      8.15249105	    -11.06133828	     -6.75880148	    -10.09865209	     -1.23665996	      0.19357143	      9.38611909	     -8.12055635	     38.70848409	     24.48654540	     68.10312905	      5.67956620	    -10.06347897	     34.04793032	     25.62820190	     63.69823242
      0.10000000	      5.11168212	     -0.78203408	     -1.52871215	      0.40503928	      0.90502475	     -0.09532884	     -6.82988432	     -1.06542218	      0.33946466	      3.97248548	      0.06933295	     10.37244737	    -14.54192237	     -6.84000663	     -6.03333334	     -2.96037130	      4.73269763	      3.43658962	      0.05997980	      8.14217641	    -11.08467461	     -6.84000663	    -10.32400841	     -1.39799443	      0.31784345	      9.42834433	     -8.10346520	     38.82054120	     24.50590443	     68.48025687	      5.90503303	    -10.02573568	     34.27472277	     25.40122489	     64.05762989
      0.11666670	      5.31616315	     -0.75452172	     -1.55865719	      0.40433820	      0.90329889	     -0.09611808	     -7.03130736	     -1.11690614	      0.24534432	      3.97140098	      0.06931402	     10.34835123	    -14.43020664	     -6.93015665	     -6.25889476	     -2.90265202	      5.06925102	      3.39166487	      0.05919572	      8.11126773	    -11.43906242	     -6.93015665	    -10.58115372	     -1.45843445	      0.40777265	      9.49234361	     -8.14583689	     38.93173309	     24.61457726	     68.83350293	      6.06890869	     -9.98726291	     34.38441571	     25.33747639	     64.40559808
      0.13333330	      5.30186562	     -0.73558420	     -1.58533052	      0.40411353	      0.90611912	     -0.09579472	     -7.02194762	     -1.13614294	      0.27472240	      3.88595084	      0.06782264	     10.19519409	    -14.41519379	     -7.03544709	     -6.20273409	     -2.87097256	      5.38239188	      3.42990838	      0.05986319	      7.73726896	    -12.10583231	     -7.03544709	    -10.47822607	     -1.45907317	      0.37974692	      9.69341548	     -8.31428919	     40.41296377	     24.45320043	     71.55989049	      6.30801686	    -10.05124794	     35.63053113	     24.89202700	     66.30795812
      0.15000000	      5.49975056	     -0.70554245	     -1.64979211	      0.40379634	      0.90634979	     -0.09703023	     -7.24836715	     -1.19428336	      0.24650329	      3.80552738	      0.06641898	      9.99687929	    -14.42979574	     -7.06493888	     -6.41143362	     -2.79351392	      5.39731311	      3.41366805	      0.05957975	      7.60450349	    -12.08140371	     -7.06493888	    -10.77956508	     -1.52408680	      0.40006323	      9.69062651	     -8.33212812	     39.99574140	     24.64731032	     71.16017380	      6.27943970	    -10.05013635	     35.23715339	     25.14304211	     66.08465722
      0.16666670	      5.71612359	     -0.68190973	     -1.74500496	      0.40371819	      0.90477544	     -0.09635919	     -7.47836723	     -1.22773019	      0.38550763	      3.74760315	      0.06540801	      9.88912414	    -14.64339943	     -7.11113621	     -6.63991546	     -2.72899537	      5.26729951	      3.43844121	      0.06001212	      7.66101859	    -11.99505136	     -7.11113621	    -11.11542036	     -1.55510115	      0.47921397	      9.68895780	     -8.39010027	     39.80482805	     24.95234282	     70.76029594	      6.26205956	    -10.12421379	     34.94840129	     25.46150469	     65.87185132
      0.18333330	      5.79810041	     -0.66627933	     -1.68896954	      0.40389327	      0.90467396	     -0.09587329	     -7.58736800	     -1.23592096	      0.19691611	      3.71654966	      0.06486603	      9.94645105	    -14.50935050	     -7.18991347	     -6.68322304	     -2.69999711	      5.58417941	      3.48895592	      0.06089377	      7.28907208	    -12.77501524	     -7.18991347	    -11.17658283	     -1.57872908	      0.34131646	      9.97564544	     -8.61003895	     41.35037542	     24.81146333	     72.70611919	      6.42648372	    -10.27975099	     36.17382385	     25.22931756	     67.20528647
      0.20000000	      6.01691582	     -0.75045117	     -1.63429901	      0.40274151	      0.90057369	     -0.09582392	     -7.76353862	     -1.15158069	      0.27540969	      3.81318629	      0.06655266	      9.99681534	    -14.84322232	     -7.27258072	     -6.81634900	     -2.79487922	      5.68649777	      3.64958067	      0.06369720	      7.45640659	    -12.78218414	     -7.27258072	    -11.46896069	     -1.44680480	      0.31292454	     10.07702647	     -8.73050467	     41.60229593	     24.93315042	     73.99377303	      6.55448088	    -10.41220836	     36.67323712	     25.35831049	     68.05971471
      0.21666670	      6.22965705	     -0.75077279	     -1.57567770	      0.40328406	      0.90170381	     -0.09541634	     -7.98731676	     -1.14457064	      0.37645290	      3.89470289	      0.06797539	      9.97367754	    -15.19658637	     -7.28495764	     -6.99063549	     -2.82563573	      5.69444241	      3.74444841	      0.06535295	      7.41740759	    -12.76148977	     -7.28495764	    -11.75165830	     -1.46487342	      0.32221900	     10.07337152	     -8.79943407	     41.44518027	     25.14534169	     73.71084825	      6.57231788	    -10.49672701	     36.55398934	     25.59076394	     67.86907079
      0.23333330	      6.44066846	     -0.78805503	     -1.49050097	      0.40345596	      0.90434495	     -0.09646939	     -8.23592406	     -1.13353635	      0.30465200	      3.92751552	      0.06854808	      9.97257479	    -15.21641261	     -7.32440068	     -7.20102865	     -2.89175758	      5.64455049	      3.78534568	      0.06606675	      7.55137315	    -12.36915416	     -7.32440068	    -12.08161722	     -1.40013986	      0.29726770	      9.96609827	     -8.89222691	     41.14330961	     25.55871765	     72.39191500	      6.50661498	    -10.54640006	     36.22745314	     26.01677974	     66.99133200
      0.25000000	      6.55210652	     -0.82159288	     -1.40665483	      0.40317574	      0.90422554	     -0.09613165	     -8.36073783	     -1.10528317	      0.37861279	      3.94021099	      0.06876965	     10.00646988	    -15.33463376	     -7.35531365	     -7.31141315	     -2.94597737	      5.81959146	      3.79083158	      0.06616249	      7.49987546	    -12.45508077	     -7.35531365	    -12.24571791	     -1.34056845	      0.25265333	     10.04749383	     -9.01403813	     41.76135786	     25.59978309	     71.97876194	      6.62376071	    -10.64110991	     36.70459987	     26.03592781	     66.66672048
      0.26666670	      6.51245482	     -0.84504408	     -1.34720556	      0.40223377	      0.90385483	     -0.09516129	     -8.30710554	     -1.03257187	      0.45884283	      3.95323589	      0.06899698	      9.99458309	    -15.52592947	     -7.36214972	     -7.21985471	     -3.01694675	      5.90259859	      3.84865179	      0.06717165	      7.36541664	    -12.57878910	     -7.36214972	    -12.25234853	     -1.36079454	      0.26368190	     10.06586822	     -9.09668605	     42.16299076	     25.66810262	     72.05476545	      6.68030180	    -10.69346446	     37.04802255	     26.11228795	     66.66944905
      0.28333330	      6.47103691	     -0.84884648	     -1.29464179	      0.40188530	      0.90137086	     -0.09437489	     -8.22290111	     -0.98565624	      0.72835879	      3.99284222	      0.06968824	      9.75867888	    -16.25184572	     -7.38817964	     -7.09603767	     -3.05856838	      6.13403550	      3.93749599	      0.06872227	      7.13808747	    -13.03200755	     -7.38817964	    -12.14218299	     -1.37791234	      0.25883658	     10.39493206	     -9.27534887	     44.42109142	     25.46560172	     72.87795379	      6.99917733	    -10.98072881	     39.11505313	     25.81119750	     66.86711774
      0.30000000	      6.65487161	     -0.84794576	     -1.25192350	      0.40253023	      0.90334206	     -0.09486930	     -8.45355180	     -0.94931018	      0.62866911	      3.93840097	      0.06873806	      9.79194153	    -16.18230019	     -7.40680200	     -7.26599076	     -3.11377135	      5.91675513	      3.96874459	      0.06926766	      7.24711604	    -12.58736164	     -7.40680200	    -12.48464655	     -1.43330399	      0.28188692	     10.27482678	     -9.31290894	     43.73873511	     25.84496092	     71.67187312	      6.97409353	    -11.03481582	     38.47811918	     26.14866933	     66.04395764
